<?xml version="1.0" encoding="UTF-8"?>
<svg width="50px" height="44px" viewBox="0 0 50 44" version="1.1" xmlns="http://www.w3.org/2000/svg" xmlns:xlink="http://www.w3.org/1999/xlink">
    <!-- Generator: Sketch 50.2 (55047) - http://www.bohemiancoding.com/sketch -->
    <title>react-brands</title>
    <desc>Created with Sketch.</desc>
    <defs></defs>
    <g id="Page-1" stroke="none" stroke-width="1" fill="none" fill-rule="evenodd">
        <g id="react-brands" fill="#FFFFFF" fill-rule="nonzero">
            <path d="M40.8398438,14.1909714 C40.3125,14.0151902 39.7851562,13.8491745 39.2578125,13.6929245 C39.3457031,13.3315964 39.4238281,12.9702683 39.5019531,12.6089402 C40.703125,6.78862767 39.9121094,2.1108933 37.2460938,0.567924549 C34.6777344,-0.906684826 30.4882813,0.626518299 26.25,4.31792455 C25.8300781,4.67925267 25.4199219,5.06011205 25.0292969,5.44097142 C24.765625,5.18706517 24.4921875,4.93315892 24.21875,4.6890183 C19.7753906,0.743705799 15.3222656,-0.916450451 12.65625,0.636283924 C10.0976562,2.12065892 9.3359375,6.5249558 10.4101562,12.0327683 C10.5175781,12.5796433 10.6347656,13.1167527 10.7714844,13.6636277 C10.1464844,13.8394089 9.53125,14.0347214 8.95507812,14.2397995 C3.74023438,16.0464402 0,18.8980027 0,21.8472214 C0,24.8940964 3.984375,27.950737 9.40429688,29.8062058 C9.84375,29.9526902 10.2832031,30.0991745 10.7324219,30.2261277 C10.5859375,30.8120652 10.4589844,31.388237 10.3417969,31.9839402 C9.31640625,37.403862 10.1171875,41.700737 12.6757813,43.1753464 C15.3125,44.6987839 19.7460938,43.1362839 24.0625,39.356987 C24.4042969,39.0542527 24.7460938,38.7417527 25.0878906,38.4097214 C25.5175781,38.8296433 25.9667969,39.2300339 26.4160156,39.6206589 C30.5957031,43.2144089 34.7265625,44.669487 37.2753906,43.1948777 C39.9121094,41.6714402 40.7714844,37.0522995 39.6582031,31.4272995 C39.5703125,30.997612 39.4726563,30.5581589 39.3652344,30.1089402 C39.6777344,30.0210495 39.9804688,29.9233933 40.2832031,29.825737 C45.9179688,27.9605027 50,24.9429245 50,21.8472214 C50,18.888237 46.1523438,16.0171433 40.8398438,14.1909714 Z M27.6269531,5.8999558 C31.2597656,2.7358933 34.6484375,1.49565892 36.1914062,2.3843308 C37.8417969,3.33159642 38.4765625,7.15972142 37.4414063,12.1890183 C37.3730469,12.5210495 37.3046875,12.8433152 37.2167969,13.1655808 C35.0488281,12.6772995 32.8515625,12.325737 30.6445313,12.1304245 C29.375,10.3140183 27.9882813,8.57573705 26.484375,6.94487767 C26.8652344,6.58354955 27.2363281,6.24175267 27.6269531,5.8999558 Z M14.9316406,24.3667527 C15.3808594,25.2261277 15.8398438,26.075737 16.328125,26.9155808 C16.8261719,27.7651902 17.3339844,28.6147995 17.8710938,29.4448777 C16.3476563,29.278862 14.8339844,29.0347214 13.3398438,28.7124558 C13.7695313,27.3062058 14.3066406,25.8511277 14.9316406,24.3667527 Z M14.9316406,19.4253464 C14.3164062,17.9702683 13.7988281,16.544487 13.3691406,15.1675339 C14.7753906,14.8550339 16.2695312,14.6011277 17.8222656,14.4058152 C17.3046875,15.216362 16.796875,16.0464402 16.3183594,16.8862839 C15.8398437,17.716362 15.3710938,18.5659714 14.9316406,19.4253464 Z M16.0449219,21.8960495 C16.6894531,20.5483933 17.3925781,19.2300339 18.1347656,17.9312058 C18.8769531,16.6323777 19.6777344,15.372612 20.5175781,14.1323777 C21.9824219,14.0249558 23.4765625,13.966362 25,13.966362 C26.5234375,13.966362 28.0273438,14.0249558 29.4824219,14.1323777 C30.3125,15.3628464 31.1035156,16.622612 31.8554688,17.9116745 C32.6074219,19.200737 33.3105469,20.5190964 33.9746094,21.856987 C33.3203125,23.2046433 32.6171875,24.5327683 31.8652344,25.841362 C31.1230469,27.1401902 30.3320312,28.3999558 29.5019531,29.6499558 C28.046875,29.7573777 26.5332031,29.8062058 25,29.8062058 C23.4667969,29.8062058 21.9824219,29.7573777 20.546875,29.669487 C19.6972656,28.4292527 18.8964844,27.1597214 18.1445312,25.8608933 C17.3925781,24.5620652 16.6992188,23.2437058 16.0449219,21.8960495 Z M33.6816406,26.8960495 C34.1796875,26.0366745 34.6484375,25.1675339 35.1074219,24.2886277 C35.7324219,25.7046433 36.2792969,27.1401902 36.7578125,28.6147995 C35.2441406,28.9565964 33.7109375,29.2202683 32.1679688,29.3960495 C32.6953125,28.575737 33.1933594,27.7358933 33.6816406,26.8960495 Z M35.0878906,19.4253464 C34.6289062,18.5659714 34.1601562,17.7065964 33.671875,16.8667527 C33.1933594,16.0366745 32.6953125,15.216362 32.1777344,14.4058152 C33.75,14.6011277 35.2539062,14.8647995 36.6601562,15.1870652 C36.2109375,16.6323777 35.6835938,18.0386277 35.0878906,19.4253464 Z M25.0195312,8.4390183 C26.0449219,9.55229955 27.0117188,10.7241745 27.9101563,11.935112 C25.9765625,11.8472214 24.0332031,11.8472214 22.0996094,11.935112 C23.0566406,10.6753464 24.0429688,9.50347142 25.0195312,8.4390183 Z M13.6914062,2.45269017 C15.3320312,1.49565892 18.9746094,2.86284642 22.8125,6.26128392 C23.0566406,6.47612767 23.3007812,6.71050267 23.5546875,6.94487767 C22.0410156,8.57573705 20.6445312,10.3140183 19.3652344,12.1304245 C17.1582031,12.325737 14.9707031,12.6675339 12.8027344,13.1460495 C12.6757812,12.6480027 12.5683594,12.1401902 12.4609375,11.6323777 C11.5429687,6.90581517 12.1484375,3.34136205 13.6914062,2.45269017 Z M11.2988281,28.1948777 C10.8886719,28.0776902 10.4882812,27.950737 10.0878906,27.8140183 C8.0078125,27.1597214 5.64453125,26.1245652 3.93554687,24.7671433 C2.94921875,24.0835495 2.28515625,23.028862 2.09960937,21.8472214 C2.09960937,20.060112 5.18554687,17.7749558 9.63867188,16.2222214 C10.1953125,16.0269089 10.7617188,15.8511277 11.328125,15.685112 C11.9921875,17.8042527 12.7929688,19.8843308 13.7207031,21.8960495 C12.7832031,23.9370652 11.9726563,26.0464402 11.2988281,28.1948777 Z M22.6855469,37.7651902 C21.0742188,39.2397995 19.2089844,40.4116745 17.1777344,41.2124558 C16.09375,41.7300339 14.84375,41.778862 13.7304687,41.3394089 C12.1777344,40.4409714 11.5332031,36.9937058 12.4121094,32.3550339 C12.5195312,31.8081589 12.6367188,31.2612839 12.7734375,30.7241745 C14.9609375,31.1929245 17.1679687,31.5151902 19.4042969,31.6812058 C20.6933594,33.5073777 22.109375,35.2554245 23.6230469,36.8960495 C23.3105469,37.1987839 22.9980469,37.4917527 22.6855469,37.7651902 Z M25.078125,35.3921433 C24.0820312,34.3179245 23.0859375,33.1265183 22.1191406,31.8472214 C23.0566406,31.8862839 24.0234375,31.9058152 25,31.9058152 C26.0058594,31.9058152 26.9921875,31.8862839 27.96875,31.8374558 C27.0703125,33.0776902 26.1035156,34.2593308 25.078125,35.3921433 Z M37.8417969,38.3218308 C37.7539063,39.513237 37.1679688,40.6265183 36.2304688,41.3784714 C34.6777344,42.2769089 31.3671875,41.1050339 27.7929688,38.0386277 C27.3828125,37.6870652 26.9726562,37.3062058 26.5527344,36.9155808 C28.046875,35.2651902 29.4238281,33.5171433 30.6738281,31.6812058 C32.9101562,31.4956589 35.1367188,31.153862 37.3339844,30.6558152 C37.4316406,31.0562058 37.5195312,31.4565964 37.5976562,31.8472214 C38.0761719,33.9565964 38.1542969,36.153862 37.8417969,38.3218308 Z M39.6191406,27.8237839 C39.3457031,27.9116745 39.0722656,27.9995652 38.7890625,28.0776902 C38.1054688,25.9487839 37.265625,23.8687058 36.2988281,21.8472214 C37.2363281,19.8550339 38.0273438,17.8042527 38.6914062,15.7046433 C39.1992188,15.8511277 39.6875,16.0073777 40.15625,16.1636277 C44.7070312,17.7261277 47.9003906,20.0503464 47.9003906,21.8276902 C47.9003906,23.7417527 44.4921875,26.2124558 39.6191406,27.8237839 Z M25,17.4136277 C27.4707031,17.4136277 29.4726563,19.4155808 29.4726563,21.8862839 C29.4726563,24.356987 27.4707031,26.3589402 25,26.3589402 C22.5292969,26.3589402 20.5273438,24.356987 20.5273438,21.8862839 C20.5273438,19.4155808 22.5292969,17.4136277 25,17.4136277 Z" id="Shape"></path>
        </g>
    </g>
</svg>